<svg xmlns="http://www.w3.org/2000/svg" width="40" height="40" fill="none" viewBox="0 0 40 40">
  <path fill="url(#paint0_linear_101_5497)" fill-rule="evenodd" d="M0 27.79a15.945 15.945 0 002.816 5.666l6.07-3.472c2.878-1.681 4.687-4.82 4.76-8.213l.05-7.293a3.232 3.232 0 011.608-2.737c.463-.264 1.685-.82 3.087.035l5.056 3.05c.582-2.044 1.655-3.914 3.15-5.409l-5.055-3.116c-1.436-.823-3.04-1.279-4.617-1.297-1.608-.052-3.223.367-4.678 1.224-2.942 1.68-4.686 4.752-4.725 8.18l-.084 7.325a3.148 3.148 0 01-1.575 2.704L0 27.791zm39.16-15.23l-5.342 3.056c-.96.56-1.53 1.596-1.575 2.705l-.085 7.325c-.039 3.428-1.782 6.5-4.725 8.18-2.942 1.68-6.424 1.64-9.327-.107l-5.022-3.082a12.46 12.46 0 003.15-5.409l5.055 3.05c1.403.856 2.624.299 3.087.035.265-.131.63-.43.962-.83.334-.466.604-1.068.646-1.907l.051-7.293c.072-3.394 1.882-6.532 4.759-8.213l5.92-3.386a15.912 15.912 0 012.447 5.876z" clip-rule="evenodd"/>
  <defs>
    <linearGradient id="paint0_linear_101_5497" x1="44.282" x2="-15.163" y1="-25.829" y2="-6.868" gradientUnits="userSpaceOnUse">
      <stop stop-color="#3D73FF"/>
      <stop offset=".404" stop-color="#79AEFF"/>
      <stop offset=".699" stop-color="#918EFF"/>
      <stop offset=".953" stop-color="#577AFF"/>
    </linearGradient>
  </defs>
</svg>
